<svg xmlns="http://www.w3.org/2000/svg" xmlns:xlink="http://www.w3.org/1999/xlink" x="0px" y="0px" version="1.0" viewBox="0 0 200 100"><metadata><?xpacket begin="﻿" id="W5M0MpCehiHzreSzNTczkc9d"?><x:xmpmeta xmlns:x="adobe:ns:meta/" x:xmptk="Adobe XMP Core 5.6-c137 79.159768, 2016/08/11-13:24:42"><rdf:RDF xmlns:rdf="http://www.w3.org/1999/02/22-rdf-syntax-ns#"><rdf:Description/></rdf:RDF></x:xmpmeta><?xpacket end="w"?></metadata><path fill="#065" d="M0 7h200v92H0z"/><path d="M43.6 66.4l-8.5 8.5H11.9V16.7h22.8l9 8.4v41.3zm-20-38.1v36.3h5.6V28.3h-5.6zM47.9 16.7H61v58.2H47.9zM97 39H84.2V27.6h-5.7v36.3h5.7V50H97v16.4l-8.7 8.4H74.8l-9.4-8.4V25.1l8.6-8.4h14.3l8.7 8.4zM114.3 41.6h.2l8.5-24.9h13.5l-11.3 27.1 13.1 31h-14.2L114.5 50h-.2v24.8h-13.2V16.7h13.2zM181.1 16.7l9.3 8.4v10.4h-13.2v-7.9h-5.4v11.9l9.6.8 9 8.4v17.7l-8.7 8.4h-14.5l-8.5-8.4V56.2h13.1v7.7h5.4V51.7l-9.4-.7-9.1-8.4V25.1l8.6-8.4z"/><path fill="#fff" d="M42.8 65.6L34.4 74H11.1V15.9h22.8l9 8.5v41.2zm-20-38.2v36.3h5.6V27.4h-5.6zM47.2 15.9h13.1v58.2H47.2zM96.2 38.2H83.4V26.9h-5.6v36.2h5.6V49.2h12.8v16.4L87.6 74H74l-9.4-8.4V24.3l8.7-8.4h14.3l8.6 8.4zM113.6 40.7h.1l8.6-24.8h13.5l-11.4 27.2L137.5 74h-14.2l-9.6-24.8h-.1V74h-13.2V15.9h13.2zM180.3 15.9l9.3 8.4v10.3h-13.1v-7.7H171v11.7l9.6.9 9 8.4v17.7L181 74h-14.6l-8.5-8.4V55.4H171v7.7h5.5V50.9l-9.5-.7-9.1-8.5V24.3l8.6-8.4z"/><path d="M22 80.1l3.4 1.7v2h-4.8v-1.5h-2v2.3l3.5.2 3.3 1.7V90l-3.1 1.7H17L13.8 90v-2.1h4.8v1.6h2v-2.4l-3.4-.2-3.4-1.6v-3.5l3.2-1.7zM34.2 82.3v3.3h-1.7v-3.3h1.7zm4.6-.5l-3.2-1.7h-7.9v11.6h4.8v-4h3.2l3.2-1.7-.1-4.2zM47 82.3v7.2h-2v-7.2h2zm4.8-.5l-3.2-1.7h-5.1l-3.2 1.7V90l3.2 1.7h5.4L52 90l-.2-8.2zM61.1 82.3v2.5h-2v-2.5h2zm4.6-.5l-3.2-1.7h-8.2v11.6h4.8V87h2v4.7h4.7V87l-2.4-1 2.4-1.1v-3.1zM77.2 82.3h-2.7v9.4h-4.8v-9.4H67v-2.2h10.2zM78.7 80.1h4.8v11.6h-4.8zM97.7 91.7h-4L90.6 86v5.7h-4.5V80.1h4l3.1 5.6v-5.6h4.5zM111.4 84.5h-4.7v-2.2h-2.3v7.2h2.3v-1.6h-1.3v-2.3h6V90l-3.1 1.7H103L99.6 90v-8.2l3.2-1.7h5.4l3.2 1.7zM132.9 84.5h-4.8v-2.2h-2.2v7.2h2.2v-1.6h-1.2v-2.3h6V90l-3.1 1.7h-5.3l-3.4-1.7v-8.2l3.2-1.7h5.4l3.2 1.7zM141.7 82.3v7.2h-2v-7.2h2zm4.7-.5l-3.2-1.7H138l-3.2 1.7V90l3.2 1.7h5.4l3.1-1.7-.1-8.2zM155.6 82.3v7.2h-2v-7.2h2zm4.8-.5l-3.2-1.7H152l-3.2 1.7V90l3.2 1.7h5.4l3.1-1.7-.1-8.2zM169.6 82.3v7.2h-2v-7.2h2zm4.8-.5l-3.2-1.7h-8.3v11.6h8.5l3.1-1.7-.1-8.2zM184.6 80.1l3.3 1.7v2h-4.7v-1.5h-2v2.3l3.5.2 3.2 1.7V90l-3.1 1.7h-5.3l-3.1-1.7v-2.1h4.8v1.6h2v-2.4l-3.4-.2-3.4-1.6v-3.5l3.1-1.7z"/><path fill="#fff" d="M21.7 79.7l3.3 1.7v2.1h-4.8v-1.6h-1.9v2.3l3.4.2 3.3 1.7v3.5l-3.1 1.7h-5.4l-3.1-1.7v-2h4.9v1.5h1.9v-2.5l-3.4-.1-3.4-1.6v-3.5l3.2-1.7zM33.8 81.8v3.3h-1.7v-3.3h1.7zm4.6-.5l-3.2-1.7h-7.9v11.6h4.8v-4h3.2l3.2-1.7-.1-4.2zM46.6 81.8V89h-2v-7.2h2zm4.8-.4l-3.2-1.7h-5.1l-3.2 1.7v8.2l3.2 1.7h5.4l3.1-1.7-.2-8.2zM60.7 81.8v2.5h-2v-2.5h2zm4.6-.5L62 79.7h-8.1v11.6h4.8v-4.7h2v4.7h4.7v-4.7L63 85.5l2.4-1.1-.1-3.1zM76.8 81.9h-2.7v9.4h-4.8v-9.4h-2.7v-2.2h10.2zM78.3 79.7h4.8v11.6h-4.8zM97.3 91.3h-4l-3.1-5.6v5.6h-4.5V79.7h4l3.1 5.6v-5.6h4.5zM111 84h-4.8v-2.1H104v7.2h2.2v-1.7H105v-2.1h6v4.3l-3.1 1.7h-5.3l-3.4-1.7v-8.2l3.2-1.7h5.4l3.2 1.7zM132.5 84h-4.8v-2.1h-2.2v7.2h2.2v-1.7h-1.2v-2.1h6v4.3l-3.1 1.7h-5.3l-3.4-1.7v-8.2l3.2-1.7h5.4l3.2 1.7zM141.3 81.8V89h-2v-7.2h2zm4.7-.4l-3.2-1.7h-5.1l-3.2 1.7v8.2l3.2 1.7h5.4l3.1-1.7-.2-8.2zM155.3 81.8V89h-2v-7.2h2zm4.8-.4l-3.2-1.7h-5.1l-3.2 1.7v8.2l3.2 1.7h5.4l3.1-1.7-.2-8.2zM169.2 81.8V89h-2v-7.2h2zm4.8-.5l-3.2-1.7h-8.4v11.6h8.5l3.1-1.7v-8.2zM184.2 79.7l3.3 1.7v2.1h-4.7v-1.6h-2v2.3l3.5.2 3.2 1.7v3.5l-3.1 1.7h-5.3l-3.1-1.7v-2h4.8v1.5h2v-2.5l-3.5-.1-3.3-1.6v-3.5l3.1-1.7z"/><ellipse cx="148.6" cy="31" fill="#fff" rx="5.3" ry="5.3" transform="rotate(-21.655 148.621 31.0436)"/><g fill="#fff"><path d="M143.7 37.2c1-.9 1.7-1.7 2.2-2.4.5-.8.6-1.5.6-2.2 0-.6-.2-1.2-.4-1.7l-.8.3c.2.4.3.9.3 1.3 0 .6-.2 1.1-.6 1.7-.4.6-1 1.4-2.1 2.2l.8.8z"/><path d="M143.2 39.2c1.8-1.3 3-2.3 3.6-3.3.6-1 .9-2.1.9-2.9v-.6l-.9.1v.5c0 .8-.2 1.6-.7 2.4-.6.9-1.6 1.9-3.4 3.1l.5.7z"/><path d="M142.2 41.3c1.9-.7 3.6-2 4.7-3.3.6-.6 1-1.3 1.3-2.1.3-.6.5-1.3.5-1.9v-.2l-.9.1v.1c0 .4-.2.9-.4 1.5-.4.9-1.2 1.8-2.1 2.8-.9.9-2.1 1.7-3.5 2.2l.4.8z"/></g><ellipse cx="149.6" cy="26.1" fill="#fff" rx="6.5" ry="6.5" transform="rotate(-21.655 149.5854 26.0782)"/><path fill="#373636" d="M152.1 32.3c-3.4 1.3-7.3-.3-8.7-3.7-1.3-3.4.3-7.3 3.7-8.7s7.3.3 8.7 3.7c1.4 3.4-.3 7.4-3.7 8.7zm-4.9-12.2c-3.3 1.3-5 5.1-3.6 8.4s5.1 5 8.4 3.6c3.3-1.3 5-5.1 3.6-8.4s-5.1-4.9-8.4-3.6z"/><path fill="#373636" d="M152.1 32.3c-3.4 1.3-7.3-.3-8.7-3.7-1.3-3.4.3-7.3 3.7-8.7s7.3.3 8.7 3.7c1.4 3.4-.3 7.4-3.7 8.7zm-4.9-12.2c-3.3 1.3-5 5.1-3.6 8.4s5.1 5 8.4 3.6c3.3-1.3 5-5.1 3.6-8.4s-5.1-4.9-8.4-3.6z"/><path fill="#eb8b23" d="M147 32.2c-.2 0-.2-.1-.1-.2 1.1-1.4 1.4-3.4.7-5.1-.7-1.7-2.2-2.9-4.1-3.2-.1 0-.1-.1-.1-.2s.1-.1.2-.1c1.9.3 3.6 1.6 4.3 3.4.7 1.8.3 3.8-.9 5.4.1-.1 0 0 0 0z"/><path fill="#eb8b23" d="M143.6 24.3c-.2 0-.2-.1-.2-.2l.5-1.1c0-.1.1-.1.2-.1s.1.1.1.2l-.6 1.2c.1 0 .1 0 0 0zM144 24.4c-.2 0-.2-.1-.2-.2l.5-1.1c0-.1.1-.1.2-.1s.1.1.1.2l-.6 1.2c.1 0 .1 0 0 0zM144.4 24.5c-.2 0-.2-.1-.2-.2l.6-1.1c0-.1.1-.1.2-.1s.1.1.1.2l-.7 1.2zM144.8 24.6c-.2 0-.2-.1-.2-.2l.6-1.1c0-.1.1-.1.2-.1s.1.1.1.2l-.7 1.2zM145.3 24.9c-.2 0-.2-.1-.2-.2l.6-1.1c0-.1.1-.1.2-.1s.1.1.1.2l-.7 1.2zM145.6 25.2c-.2 0-.2-.1-.1-.2l.7-1c0-.1.1-.1.2 0 .1 0 .1.1 0 .2l-.8 1c.1 0 .1 0 0 0zM146 25.4c-.2 0-.2-.1-.1-.2l.8-.9c0-.1.1-.1.2 0 .1 0 .1.1 0 .2l-.9.9zM146.3 25.7h-.2c-.1-.1 0-.1 0-.2l.9-.9c.1-.1.1 0 .2 0 .1.1 0 .1 0 .2l-.9.9zM146.5 26.1c-.1 0-.1 0-.2-.1v-.2l1-.7h.2v.2l-1 .8c.1 0 .1 0 0 0zM146.8 26.5c-.1 0-.1 0-.2-.1 0-.1 0-.2.1-.2l1.1-.6c.1 0 .2 0 .2.1s0 .2-.1.2l-1.1.6zM147 26.9c-.1 0-.1 0-.2-.1 0-.1 0-.2.1-.2l1.1-.6c.1 0 .2 0 .2.1s0 .2-.1.2l-1.1.6c.1 0 0 0 0 0zM148.3 26.9l-1.2.5c-.1 0-.2 0-.2-.1s0-.2.1-.2l1.2-.5c.1 0 .2 0 .2.1 0 .2 0 .2-.1.2zM148.5 27.4c0 .1 0 .1 0 0l-1.2.4c-.1 0-.2 0-.2-.1s0-.2.1-.2l1.2-.4c.1 0 .2 0 .2.1 0 .2 0 .2-.1.2zM148.6 28l-1.3.2c-.1 0-.1 0-.2-.1 0-.1 0-.1.1-.2l1.2-.2c.1 0 .1 0 .2.1s0 .2 0 .2zM148.7 28.5l-1.3.2c-.1 0-.1 0-.2-.1 0-.1 0-.1.1-.2l1.3-.2c.1 0 .1 0 .2.1 0 .2 0 .2-.1.2zM148.6 29.1h-1.3c-.1 0-.1-.1-.1-.1 0-.1.1-.1.1-.1h1.3c.1.1.1.2 0 .2.1 0 .1 0 0 0zM148.7 29.8c-.1 0-.1.1 0 0l-1.3-.2c-.1 0-.1-.1-.1-.2s.1-.1.2-.1l1.3.2c.1 0 .1.1.1.2l-.2.1zM148.6 30.5l-1.3-.5c-.1 0-.1-.1-.1-.2s.1-.1.2-.1l1.2.5v.3c0-.1 0 0 0 0zM148.4 31l-1.2-.6c-.1 0-.1-.1-.1-.2s.1-.1.2-.1l1.1.6c.1.1.1.2 0 .3zM148.1 31.6l-1.1-.7c-.1 0-.1-.1 0-.2 0-.1.1-.1.2 0l1 .7s0 .1-.1.2c.1 0 .1 0 0 0zM147.9 32l-1.1-.6c-.1 0-.1-.1 0-.2 0-.1.1-.1.2 0l1 .6c-.1 0 0 .1-.1.2z"/><path fill="#eb8b23" d="M147.7 32.2l-1.2-.6c-.1 0-.1-.1-.1-.2s.1-.1.2-.1l1.1.6c.1.2.1.2 0 .3.1 0 0 0 0 0z"/><g><path fill="#eb8b23" d="M155.7 28.8c-2-.3-3.6-1.6-4.3-3.4-.7-1.8-.4-3.9.8-5.4 0-.1.1-.1.2 0 .1 0 .1.1 0 .2-1.1 1.4-1.4 3.4-.7 5.1.7 1.7 2.2 2.9 4.1 3.2.1 0 .1.1.1.2l-.2.1z"/><path fill="#eb8b23" d="M152.7 20.7l-1.2-.5c-.1 0-.1-.1-.1-.2s.1-.1.2-.1l1.1.5c.1.1.1.2 0 .3.1 0 0 0 0 0zM152.5 21l-1.2-.5c-.1 0-.1-.1-.1-.2s.1-.1.2-.1l1.1.5c.1.1.1.2 0 .3zM152.3 21.4l-1.3-.5c-.1 0-.1-.1-.1-.2s.1-.1.2-.1l1.2.5c.1.1.1.1 0 .3.1-.1 0 0 0 0zM152 21.8l-1.3-.5c-.1 0-.1-.1-.1-.2s.1-.1.2-.1l1.2.5c.1.1.2.1 0 .3.1-.1.1 0 0 0zM151.9 22.3l-1.3-.4c-.1 0-.1-.1-.1-.2s.1-.1.2-.1l1.2.4c.1.1.1.2 0 .3.1 0 .1 0 0 0zM151.8 22.7l-1.3-.2c-.1 0-.1-.1-.1-.2s.1-.1.2-.1l1.2.2c.1.1.1.2 0 .3.1 0 .1 0 0 0zM151.8 23.2c-.1 0-.1 0 0 0l-1.3-.2c-.1 0-.1-.1-.1-.2s.1-.1.2-.1l1.3.2c.1 0 .1.1.1.2-.2 0-.2 0-.2.1zM151.8 23.6c-.1 0-.1 0 0 0h-1.3c-.1 0-.1-.1-.1-.1 0-.1.1-.1.1-.1h1.3c.1.1.1.1 0 .2 0-.1 0 0 0 0zM151.8 24l-1.3.2c-.1 0-.1 0-.2-.1 0-.1 0-.1.1-.2l1.2-.2c.1 0 .1 0 .2.1s.1.2 0 .2zM151.9 24.4l-1.2.4c-.1 0-.2 0-.2-.1s0-.2.1-.2l1.2-.4c.1 0 .2 0 .2.1s0 .2-.1.2zM152 25l-1.2.4c-.1 0-.2 0-.2-.1s0-.2.1-.2l1.2-.4c.1 0 .2 0 .2.1s0 .1-.1.2zM151.1 25.8c-.1 0-.2 0-.2-.1s0-.2.1-.2l1.1-.5c.1 0 .2 0 .2.1s0 .2-.1.2l-1.1.5zM151.3 26.3c-.1 0-.1 0-.2-.1 0-.1 0-.2.1-.2l1.1-.6c.1 0 .2 0 .2.1s0 .2-.1.2l-1.1.6zM151.6 26.9c-.1 0-.1 0-.2-.1v-.2l1.1-.6h.2v.2l-1.1.7zM151.9 27.3h-.2v-.2l1-.7h.2v.2l-1 .7c0-.1 0 0 0 0zM152.4 27.6h-.2c-.1-.1 0-.1 0-.2l.9-.9c.1-.1.1 0 .2 0 .1.1 0 .1 0 .2l-.9.9zM152.8 28.2c-.2 0-.2-.1-.1-.2l.8-.9c0-.1.1-.1.2 0 .1 0 .1.1 0 .2l-.9.9z"/><path fill="#eb8b23" d="M153.3 28.6c-.2 0-.2-.1-.2-.2l.6-1.1c0-.1.1-.1.2-.1s.1.1.1.2l-.7 1.2c.1 0 .1 0 0 0zM153.9 28.8s-.1 0 0 0c-.2 0-.2-.1-.2-.2l.4-1.2c0-.1.1-.1.2-.1s.1.1.1.2l-.5 1.3zM154.4 29.1c-.2 0-.2-.1-.2-.2l.2-1.2c0-.1.1-.1.2-.1s.1.1.1.2l-.3 1.3c.1 0 .1 0 0 0zM154.9 29.2s-.1 0 0 0c-.2 0-.2-.1-.2-.2l.3-1.2c0-.1.1-.1.2-.1s.1.1.1.2l-.4 1.3c.1 0 0 0 0 0zM155.2 29.3s-.1 0 0 0c-.2 0-.2-.1-.2-.2l.4-1.2c0-.1.1-.1.2-.1s.1.1.1.2l-.5 1.3c.1-.1 0-.1 0 0z"/></g><g><ellipse cx="149.7" cy="19.4" fill="#fff" rx="8.1" ry="8.1" transform="rotate(-54.627 149.6682 19.4409)"/><defs><ellipse id="a" cx="149.7" cy="19.5" rx="8.1" ry="8.1" transform="rotate(-54.627 149.6701 19.4778)"/></defs><clipPath id="b"><use overflow="visible" xlink:href="#a"/></clipPath><g clip-path="url(#b)"><path fill="#373636" d="M149.7 26.6c.1.1.1.2 0 .2 0 0-.6.9-1.1 1.1-.1 0-.2 0-.2-.1s0-.2.1-.2c.5-.2 1-1 1-1 .1-.1.2-.1.2 0z"/></g><defs><ellipse id="c" cx="149.7" cy="19.5" rx="8.1" ry="8.1" transform="rotate(-54.627 149.6701 19.4778)"/></defs><clipPath id="d"><use overflow="visible" xlink:href="#c"/></clipPath><g clip-path="url(#d)"><path fill="#373636" d="M154.2 26.3s.1.1.1.2-.1.2-.2.2c-.5-.1-1.1-.3-1.1-.3-.1 0-.1-.1-.1-.2s.1-.1.2-.1c0-.2.5.1 1.1.2 0-.1 0-.1 0 0z"/></g><defs><ellipse id="e" cx="149.7" cy="19.5" rx="8.1" ry="8.1" transform="rotate(-54.627 149.6701 19.4778)"/></defs><clipPath id="f"><use overflow="visible" xlink:href="#e"/></clipPath><g clip-path="url(#f)"><path fill="#373636" d="M148.1 24.5c.1.2 0 .2-.1.2s-1.5-.1-3.6-1.2c-.1 0-.1-.1-.1-.2s.1-.1.2-.1c2.1 1.2 3.5 1.3 3.6 1.3-.1 0-.1 0 0 0z"/></g><defs><ellipse id="g" cx="149.7" cy="19.5" rx="8.1" ry="8.1" transform="rotate(-54.627 149.6701 19.4778)"/></defs><clipPath id="h"><use overflow="visible" xlink:href="#g"/></clipPath><g clip-path="url(#h)"><path fill="#373636" d="M146 17.1c.1.1.1.2 0 .2-1.7 1.7-2.4 2.6-2.4 2.6 0 .1-.2.1-.2.1-.1 0-.1-.2-.1-.2 0-.1.6-1 2.4-2.7h.3z"/></g><g><defs><ellipse id="i" cx="149.7" cy="19.5" rx="8.1" ry="8.1" transform="rotate(-54.627 149.6701 19.4778)"/></defs><clipPath id="j"><use overflow="visible" xlink:href="#i"/></clipPath><g clip-path="url(#j)"><path fill="#373636" d="M149.4 18.2c.7 2.8 1.1 4.2 1.1 4.2 0 .1 0 .2-.1.2s-.2 0-.2-.1c0 0-.4-1.4-1-4.1.1-.1.1-.2.2-.2-.1 0 0 0 0 0z"/></g></g><g><defs><ellipse id="k" cx="149.7" cy="19.5" rx="8.1" ry="8.1" transform="rotate(-54.627 149.6701 19.4778)"/></defs><clipPath id="l"><use overflow="visible" xlink:href="#k"/></clipPath><g clip-path="url(#l)"><path fill="#373636" d="M156 20.5c.1.1.1.2 0 .2-.9 1.5-2.4 2.6-2.4 2.7-.1.1-.2 0-.2 0-.1-.1 0-.2 0-.2s1.4-1.1 2.4-2.6c0-.1.1-.1.2-.1z"/></g></g><g><defs><ellipse id="m" cx="149.7" cy="19.5" rx="8.1" ry="8.1" transform="rotate(-54.627 149.6701 19.4778)"/></defs><clipPath id="n"><use overflow="visible" xlink:href="#m"/></clipPath><g clip-path="url(#n)"><path fill="#373636" d="M155.4 16.8c.1 0 .1.1.1.2s-.1.1-.2.1c0 0-2.1-.8-3.6-1.1-.1 0-.2-.1-.1-.2 0-.1.1-.2.2-.1 1.4.3 3.5 1.1 3.6 1.1-.1 0-.1 0 0 0z"/></g></g><g><defs><ellipse id="o" cx="149.7" cy="19.5" rx="8.1" ry="8.1" transform="rotate(-54.627 149.6701 19.4778)"/></defs><clipPath id="p"><use overflow="visible" xlink:href="#o"/></clipPath><g clip-path="url(#p)"><path fill="#373636" d="M151.4 11.4c.1.1.1.2 0 .2-.9.6-1.4 1.4-1.4 1.4-.1.1-.2.1-.2 0-.1-.1-.1-.2 0-.2 0 .1.6-.8 1.6-1.4-.1-.1-.1-.1 0 0z"/></g></g><g><defs><ellipse id="q" cx="149.7" cy="19.5" rx="8.1" ry="8.1" transform="rotate(-54.627 149.6701 19.4778)"/></defs><clipPath id="r"><use overflow="visible" xlink:href="#q"/></clipPath><g clip-path="url(#r)"><path fill="#373636" d="M154.1 12.5c1.2 1.3 2 3 2.1 3.1 0 .1 0 .2-.1.2s-.2 0-.2-.1c0 0-.8-1.8-2-3-.1-.1-.1-.2 0-.2h.2z"/></g></g><g><defs><ellipse id="s" cx="149.7" cy="19.5" rx="8.1" ry="8.1" transform="rotate(-54.627 149.6701 19.4778)"/></defs><clipPath id="t"><use overflow="visible" xlink:href="#s"/></clipPath><g clip-path="url(#t)"><path fill="#373636" d="M146.3 13.8c.1.1.1.1 0 0 .2.1.2.2.1.2-.1.1-.2.1-.2 0 0 0-.6-.5-1.9-.7-.1 0-.2-.1-.1-.2 0-.1.1-.2.2-.1 1.2.3 1.8.7 1.9.8z"/></g></g><g><defs><ellipse id="u" cx="149.7" cy="19.5" rx="8.1" ry="8.1" transform="rotate(-54.627 149.6701 19.4778)"/></defs><clipPath id="v"><use overflow="visible" xlink:href="#u"/></clipPath><g clip-path="url(#v)"><path fill="#373636" d="M142.6 15.4c.1 0 .1.1.1.2-.7 1.8-.3 3.6-.3 3.6 0 .1 0 .2-.1.2s-.2 0-.2-.1-.4-1.8.3-3.7c0-.2.1-.3.2-.2z"/></g></g><g><defs><ellipse id="w" cx="149.7" cy="19.5" rx="8.1" ry="8.1" transform="rotate(-54.627 149.6701 19.4778)"/></defs><clipPath id="x"><use overflow="visible" xlink:href="#w"/></clipPath><g clip-path="url(#x)"><path fill="#373636" d="M143.4 19.8c-.4-.2-1.3-.7-1.3-.7-.2.3-.6.7-.6.7.1 1.7.6 3.3 1.7 4.7.7-.6 1.2-1 1.2-1-.8-1.8-1-3.7-1-3.7zM153.1 26.1s.5-.9.5-2.8c0 0-1.2-.2-3.2-.8 0 0-.9 1-2.4 2.1 0 0 .4 1 1.7 2.2-.1 0 1.2.2 3.4-.7zM145.8 17.2s1.8.5 3.6 1.2c0 0 1.5-1.7 2.4-2.5 0 0-.5-1.9-1.8-3 0 0-2.1.1-3.6 1.1-.1 0-.8 1.2-.6 3.2zM155.9 20.7s.6 0 1.6.3l.1-.1c.3-1.7.1-3.3-.6-4.8-.1 0-.2-.1-.2-.1s-.6-.3-.8-.5c0 0-.2.6-.8 1.3-.1.1.7 2.2.7 3.9z"/></g></g><g><path fill="#373636" d="M154.4 12.8c3.7 2.6 4.6 7.7 2 11.4-2.6 3.7-7.7 4.6-11.4 2-3.7-2.6-4.6-7.7-2-11.4 2.6-3.7 7.7-4.6 11.4-2zM145.1 26c3.6 2.5 8.5 1.7 11.1-1.9s1.7-8.5-1.9-11.1c-3.6-2.5-8.5-1.7-11.1 1.9-2.5 3.6-1.8 8.6 1.9 11.1z"/></g></g><g><circle cx="147.3" cy="11.6" r="9.8" fill="#333"/><g fill="#ec8b23"><path d="M147.5 11.3l2-.9c-.8-1.9-.3-3.5.2-5 .3-.9.6-1.7.6-2.6-2.1-.7-4.4-.6-6.6.3l3.8 8.2zM145.1 12.4l2-.9-3.9-8.1c-2.1 1-3.6 2.8-4.5 4.9.7.6 1.5.9 2.4 1.2 1.5.4 3 1.1 4 2.9zM153.6 13.8c-1.5-.6-3-1.2-4-3l-2 .9 3.9 8.1c2.1-1 3.6-2.8 4.5-4.9-.7-.5-1.5-.8-2.4-1.1z"/><path d="M156.1 14.5c.7-2.1.6-4.5-.3-6.7l-5.8 2.8c.9 1.7 2.3 2.2 3.7 2.8.9.3 1.7.6 2.4 1.1zM147.2 11.9l-2 .9c.8 1.9.3 3.5-.2 5-.3.9-.6 1.7-.6 2.6 2.1.7 4.4.6 6.6-.3l-3.8-8.2z"/><path d="M144.6 17.7c.5-1.5.9-2.9.2-4.7l-5.8 2.8c1.1 2.1 2.8 3.7 5 4.5.1-1 .3-1.8.6-2.6zM149.8 10.1l5.8-2.8c-1.1-2.1-2.8-3.7-5-4.5-.1.9-.3 1.7-.6 2.5-.4 1.6-.9 3.1-.2 4.8zM144.6 12.6c-.9-1.7-2.3-2.2-3.7-2.8-.8-.3-1.7-.6-2.4-1.2-.7 2.1-.6 4.5.3 6.7l5.8-2.7z"/></g></g></svg>